<svg width="211" height="61" viewBox="0 0 211 61" fill="none" xmlns="http://www.w3.org/2000/svg">
<path d="M209.6 53.7821C209.6 54.5496 209.445 55.3096 209.144 56.0186C208.842 56.7276 208.401 57.3718 207.844 57.9142C207.287 58.4566 206.626 58.8867 205.899 59.1799C205.171 59.473 204.392 59.6235 203.605 59.6227H7.39525C5.80496 59.6243 4.27912 59.0099 3.1533 57.9146C2.02748 56.8194 1.39386 55.3329 1.39178 53.7821V7.20527C1.39386 5.65379 2.02723 4.16653 3.15282 3.07003C4.27842 1.97354 5.80424 1.35746 7.39525 1.35706H203.603C204.391 1.35706 205.17 1.50834 205.898 1.80225C206.626 2.09617 207.287 2.52697 207.843 3.07005C208.4 3.61313 208.842 4.25784 209.143 4.96737C209.444 5.6769 209.599 6.43735 209.599 7.20527L209.6 53.7821Z" fill="white"/>
<path d="M203.605 60.9816H7.39525C5.4362 60.9812 3.55732 60.2229 2.17089 58.8732C0.784463 57.5235 0.00372754 55.6926 0 53.7823L0 7.20696C0.00289813 5.29563 0.783118 3.46346 2.1695 2.11237C3.55589 0.761288 5.43523 0.00161323 7.39525 0L203.603 0C205.563 0.0024182 207.442 0.762351 208.828 2.11326C210.214 3.46417 210.995 5.29588 210.998 7.20696V53.7823C211.002 57.7533 207.678 60.9816 203.605 60.9816Z" fill="#A6A6A6"/>
<path d="M209.6 53.7821C209.6 54.5496 209.445 55.3096 209.144 56.0186C208.842 56.7276 208.401 57.3718 207.844 57.9142C207.287 58.4566 206.626 58.8867 205.899 59.1799C205.171 59.473 204.392 59.6235 203.605 59.6227H7.39525C5.80496 59.6243 4.27912 59.0099 3.1533 57.9146C2.02748 56.8194 1.39386 55.3329 1.39178 53.7821V7.20527C1.39386 5.65379 2.02723 4.16653 3.15282 3.07003C4.27842 1.97354 5.80424 1.35746 7.39525 1.35706H203.603C204.391 1.35706 205.17 1.50834 205.898 1.80225C206.626 2.09617 207.287 2.52697 207.843 3.07005C208.4 3.61313 208.842 4.25784 209.143 4.96737C209.444 5.6769 209.599 6.43735 209.599 7.20527L209.6 53.7821Z" fill="black"/>
<path d="M47.1144 30.1697C47.0691 25.2548 51.2413 22.8636 51.4321 22.7523C49.0692 19.3928 45.4067 18.9338 44.1197 18.8972C41.0437 18.5815 38.06 20.6921 36.493 20.6921C34.8948 20.6921 32.4819 18.9277 29.8813 18.9796C26.5347 19.0299 23.404 20.9193 21.6869 23.8533C18.1433 29.8357 20.7861 38.6271 24.1812 43.4628C25.8795 45.8326 27.8639 48.4753 30.4614 48.3823C33.0026 48.2817 33.9518 46.804 37.0185 46.804C40.057 46.804 40.9483 48.3823 43.5974 48.3228C46.3247 48.2817 48.0418 45.9439 49.6806 43.5543C51.6432 40.8414 52.4314 38.1666 52.4627 38.0294C52.4001 38.008 47.1676 36.0591 47.1144 30.1697ZM42.1102 15.7161C43.477 14.0494 44.4122 11.7818 44.1526 9.48059C42.1744 9.56599 39.7004 10.8149 38.2758 12.4451C37.0153 13.8816 35.8894 16.2362 36.1803 18.4504C38.4024 18.612 40.684 17.357 42.1102 15.7161Z" fill="white"/>
<path d="M203.605 0H98.509L139.673 60.9816H203.605C205.564 60.98 207.443 60.2207 208.829 58.8703C210.216 57.5199 210.996 55.6885 211 53.7777V7.20696C210.997 5.29575 210.216 3.46382 208.83 2.11282C207.444 0.76182 205.565 0.00201587 203.605 0Z" fill="url(#paint0_linear_1_217)"/>
<path d="M83.9218 48.0422H80.3704L78.425 42.0811H71.6631L69.81 48.0422H66.3524L73.0533 27.748H77.1911L83.9218 48.0422ZM77.8386 39.5802L76.0793 34.281C75.8932 33.7396 75.5429 32.4647 75.03 30.4579H74.9674C74.761 31.321 74.431 32.5959 73.9791 34.281L72.2495 39.5802H77.8386ZM101.121 40.5455C101.121 43.0342 100.428 45.0014 99.0407 46.4456C97.799 47.7311 96.2555 48.3731 94.4149 48.3731C92.4273 48.3731 90.998 47.6823 90.1301 46.2977V53.9758H86.7961V38.2184C86.7961 36.6553 86.7538 35.0526 86.6725 33.4087H89.6047L89.7907 35.7282H89.8533C90.9652 33.9806 92.6525 33.1068 94.9169 33.1068C96.6871 33.1068 98.1649 33.7884 99.3472 35.1532C100.528 36.5211 101.121 38.3175 101.121 40.5455ZM97.724 40.6645C97.724 39.2401 97.3956 38.0659 96.7356 37.1403C96.0147 36.178 95.0467 35.6961 93.8332 35.6961C93.0106 35.6961 92.2631 35.9645 91.5954 36.4937C90.9261 37.0274 90.4882 37.7243 90.2834 38.5875C90.1919 38.9102 90.1399 39.2425 90.1285 39.5772V42.0186C90.1285 43.0815 90.4632 43.9797 91.1325 44.7147C91.8018 45.4467 92.6713 45.8142 93.7409 45.8142C94.9967 45.8142 95.9741 45.34 96.6731 44.3991C97.3737 43.4551 97.724 42.2108 97.724 40.6645ZM118.38 40.5455C118.38 43.0342 117.688 45.0014 116.3 46.4456C115.057 47.7311 113.515 48.3731 111.673 48.3731C109.686 48.3731 108.256 47.6823 107.388 46.2977V53.9758H104.054V38.2184C104.054 36.6553 104.012 35.0526 103.931 33.4087H106.863L107.049 35.7282H107.111C108.222 33.9806 109.909 33.1068 112.175 33.1068C113.944 33.1068 115.422 33.7884 116.607 35.1532C117.786 36.5211 118.38 38.3175 118.38 40.5455ZM114.982 40.6645C114.982 39.2401 114.652 38.0659 113.992 37.1403C113.271 36.178 112.306 35.6961 111.093 35.6961C110.27 35.6961 109.523 35.9645 108.852 36.4937C108.183 37.0274 107.746 37.7243 107.542 38.5875C107.44 38.99 107.385 39.3179 107.385 39.5772V42.0186C107.385 43.0815 107.721 43.9797 108.388 44.7147C109.057 45.4452 109.926 45.8142 110.999 45.8142C112.256 45.8142 113.234 45.34 113.931 44.3991C114.632 43.4551 114.982 42.2108 114.982 40.6645ZM137.678 42.3495C137.678 44.0773 137.058 45.4818 135.828 46.566C134.473 47.7494 132.583 48.3426 130.159 48.3426C127.92 48.3426 126.124 47.9217 124.77 47.0784L125.541 44.3686C127.003 45.2134 128.609 45.6343 130.358 45.6343C131.615 45.6343 132.592 45.3568 133.29 44.8062C133.989 44.2542 134.342 43.5161 134.342 42.595C134.342 41.77 134.05 41.0792 133.476 40.5165C132.899 39.9553 131.945 39.4323 130.605 38.9519C126.961 37.6267 125.138 35.6885 125.138 33.1388C125.138 31.4735 125.782 30.1102 127.067 29.0443C128.353 27.9798 130.057 27.4476 132.178 27.4476C134.072 27.4476 135.649 27.7694 136.902 28.4114L136.065 31.0618C134.886 30.4396 133.556 30.1285 132.067 30.1285C130.891 30.1285 129.968 30.4106 129.308 30.9718C128.753 31.4735 128.472 32.085 128.472 32.8109C128.472 33.6115 128.792 34.2764 129.43 34.7979C129.984 35.2783 130.994 35.8014 132.455 36.3625C134.247 37.0671 135.563 37.8875 136.406 38.8299C137.255 39.7723 137.678 40.9481 137.678 42.3495ZM148.729 35.8486H145.054V42.9534C145.054 44.7605 145.702 45.6617 147 45.6617C147.595 45.6617 148.09 45.6129 148.48 45.5108L148.573 47.9797C147.916 48.2191 147.051 48.3396 145.98 48.3396C144.663 48.3396 143.634 47.9477 142.891 47.1638C142.152 46.38 141.78 45.067 141.78 43.2188V35.8425H139.59V33.4026H141.78V30.7232L145.054 29.7595V33.4026H148.729V35.8486ZM165.277 40.605C165.277 42.8543 164.617 44.701 163.301 46.1452C161.923 47.632 160.09 48.3731 157.805 48.3731C155.601 48.3731 153.847 47.661 152.54 46.2382C151.233 44.8123 150.579 43.0159 150.579 40.849C150.579 38.5814 151.255 36.724 152.601 35.2798C153.951 33.8342 155.768 33.1113 158.053 33.1113C160.254 33.1113 162.023 33.825 163.362 35.2493C164.641 36.6309 165.277 38.4151 165.277 40.605ZM161.821 40.6797C161.821 39.3393 161.524 38.1894 160.928 37.2272C160.229 36.0652 159.229 35.4842 157.932 35.4842C156.597 35.4842 155.572 36.0652 154.875 37.2272C154.278 38.1894 153.98 39.3591 153.98 40.7407C153.98 42.0827 154.278 43.2355 154.875 44.1947C155.596 45.3568 156.601 45.9378 157.904 45.9378C159.179 45.9378 160.178 45.3446 160.9 44.1658C161.513 43.1806 161.821 42.0232 161.821 40.6797ZM176.119 36.268C175.772 36.2069 175.421 36.1768 175.068 36.178C173.896 36.178 172.988 36.6081 172.35 37.4742C171.797 38.2367 171.519 39.2005 171.519 40.364V48.0422H168.184V38.0171C168.187 36.481 168.155 34.945 168.088 33.4102H170.992L171.113 36.21H171.206C171.559 35.2478 172.113 34.4716 172.873 33.8906C173.568 33.3829 174.414 33.108 175.283 33.1068C175.591 33.1068 175.869 33.1281 176.116 33.1662L176.119 36.268ZM191.03 40.0331C191.039 40.5274 190.998 41.0212 190.908 41.5078H180.906C180.944 42.9534 181.428 44.0605 182.357 44.823C183.2 45.5031 184.29 45.8447 185.629 45.8447C187.11 45.8447 188.461 45.616 189.676 45.1539L190.198 47.4093C188.778 48.0132 187.102 48.3136 185.167 48.3136C182.84 48.3136 181.014 47.6457 179.685 46.3129C178.359 44.9786 177.694 43.1852 177.694 40.9389C177.694 38.7339 178.312 36.8963 179.549 35.4308C180.844 33.8662 182.593 33.0839 184.795 33.0839C186.958 33.0839 188.595 33.8662 189.707 35.4308C190.588 36.6706 191.03 38.2077 191.03 40.0331ZM187.851 39.1898C187.874 38.2245 187.655 37.3934 187.204 36.6904C186.626 35.7846 185.738 35.3332 184.548 35.3332C183.458 35.3332 182.57 35.7739 181.894 36.6584C181.339 37.3614 181.009 38.2062 180.908 39.1868L187.851 39.1898Z" fill="white"/>
<path d="M70.7014 20.5731C69.774 20.5731 68.9718 20.5289 68.304 20.4541V10.6426C69.238 10.5019 70.1817 10.4325 71.1267 10.4352C74.9502 10.4352 76.7111 12.2697 76.7111 15.2601C76.7111 18.7096 74.6312 20.5731 70.7014 20.5731ZM71.2612 11.6932C70.7451 11.6932 70.3057 11.7237 69.9413 11.7969V19.2555C70.1384 19.286 70.5168 19.2997 71.0485 19.2997C73.5537 19.2997 74.9799 17.909 74.9799 15.3044C74.9799 12.9818 73.6898 11.6932 71.2612 11.6932ZM82.1985 20.6478C80.0436 20.6478 78.6471 19.0786 78.6471 16.9483C78.6471 14.7279 80.0733 13.145 82.3205 13.145C84.4441 13.145 85.8719 14.6395 85.8719 16.8308C85.8719 19.0786 84.4003 20.6478 82.1985 20.6478ZM82.261 14.3131C81.0772 14.3131 80.3188 15.3928 80.3188 16.9025C80.3188 18.3832 81.0929 19.4629 82.2454 19.4629C83.3979 19.4629 84.172 18.3085 84.172 16.872C84.172 15.4081 83.4136 14.3131 82.261 14.3131ZM98.1603 13.2929L95.8537 20.4846H94.3508L93.3953 17.3615C93.1578 16.5976 92.96 15.8224 92.8027 15.039H92.7714C92.651 15.8228 92.4227 16.6082 92.1803 17.3615L91.1638 20.4846H89.6453L87.4748 13.2929H89.159L89.9941 16.7119C90.1911 17.5262 90.3569 18.2948 90.4945 19.0207H90.5258C90.6462 18.4153 90.8432 17.6589 91.1325 16.7271L92.1803 13.2945H93.5158L94.5182 16.6539C94.7606 17.4683 94.9576 18.2673 95.1108 19.0222H95.1546C95.261 18.2826 95.4283 17.4972 95.6551 16.6539L96.5511 13.2945L98.1603 13.2929ZM106.652 20.4846H105.013V16.3551C105.013 15.0832 104.512 14.4458 103.526 14.4458C102.555 14.4458 101.887 15.2601 101.887 16.2071V20.4846H100.248V15.3486C100.248 14.7127 100.232 14.031 100.187 13.2914H101.629L101.705 14.4016H101.751C102.192 13.633 103.086 13.145 104.089 13.145C105.637 13.145 106.653 14.2994 106.653 16.1782L106.652 20.4846ZM111.171 20.4846H109.531V9.99292H111.171V20.4846ZM117.146 20.6478C114.993 20.6478 113.595 19.0786 113.595 16.9483C113.595 14.7279 115.021 13.145 117.267 13.145C119.392 13.145 120.818 14.6395 120.818 16.8308C120.82 19.0786 119.347 20.6478 117.146 20.6478ZM117.207 14.3131C116.024 14.3131 115.265 15.3928 115.265 16.9025C115.265 18.3832 116.041 19.4629 117.19 19.4629C118.344 19.4629 119.117 18.3085 119.117 16.872C119.118 15.4081 118.362 14.3131 117.207 14.3131ZM127.28 20.4846L127.161 19.6566H127.117C126.617 20.323 125.887 20.6478 124.961 20.6478C123.639 20.6478 122.701 19.745 122.701 18.5312C122.701 16.7561 124.279 15.8381 127.011 15.8381V15.7054C127.011 14.7584 126.496 14.2842 125.48 14.2842C124.753 14.2842 124.115 14.4626 123.553 14.8179L123.22 13.7672C123.902 13.3524 124.753 13.145 125.752 13.145C127.679 13.145 128.651 14.1362 128.651 16.1202V18.7691C128.651 19.4949 128.684 20.0577 128.758 20.4862L127.28 20.4846ZM127.055 16.9025C125.234 16.9025 124.321 17.3325 124.321 18.3527C124.321 19.1076 124.792 19.4766 125.446 19.4766C126.279 19.4766 127.055 18.856 127.055 18.0127V16.9025ZM136.61 20.4846L136.533 19.3302H136.488C136.017 20.2025 135.226 20.6478 134.12 20.6478C132.342 20.6478 131.025 19.1229 131.025 16.9772C131.025 14.7279 132.39 13.1435 134.255 13.1435C135.241 13.1435 135.94 13.4683 136.334 14.121H136.367V9.99292H138.008V18.5464C138.008 19.2418 138.025 19.893 138.069 20.4846H136.61ZM136.367 16.2529C136.367 15.2464 135.684 14.3879 134.641 14.3879C133.426 14.3879 132.683 15.4385 132.683 16.9178C132.683 18.368 133.454 19.3607 134.608 19.3607C135.639 19.3607 136.367 18.4869 136.367 17.4515V16.2529ZM148.409 20.6478C146.255 20.6478 144.859 19.0786 144.859 16.9483C144.859 14.7279 146.285 13.145 148.531 13.145C150.656 13.145 152.082 14.6395 152.082 16.8308C152.084 19.0786 150.612 20.6478 148.409 20.6478ZM148.47 14.3131C147.287 14.3131 146.529 15.3928 146.529 16.9025C146.529 18.3832 147.303 19.4629 148.454 19.4629C149.608 19.4629 150.381 18.3085 150.381 16.872C150.384 15.4081 149.625 14.3131 148.47 14.3131ZM160.896 20.4846H159.255V16.3551C159.255 15.0832 158.755 14.4458 157.768 14.4458C156.797 14.4458 156.131 15.2601 156.131 16.2071V20.4846H154.49V15.3486C154.49 14.7127 154.475 14.031 154.429 13.2914H155.871L155.948 14.4016H155.993C156.432 13.633 157.329 13.1435 158.329 13.1435C159.878 13.1435 160.896 14.2979 160.896 16.1766V20.4846ZM171.922 14.4916H170.119V17.9837C170.119 18.8728 170.435 19.3165 171.073 19.3165C171.362 19.3165 171.605 19.286 171.8 19.2418L171.845 20.4557C171.528 20.5746 171.103 20.6341 170.574 20.6341C169.282 20.6341 168.51 19.9387 168.51 18.1179V14.4916H167.434V13.2929H168.51V11.9754L170.119 11.5011V13.2914H171.922V14.4916ZM180.598 20.4846H178.961V16.3855C178.961 15.0985 178.462 14.4473 177.474 14.4473C176.624 14.4473 175.833 15.01 175.833 16.1492V20.4846H174.196V9.99292H175.833V14.3131H175.866C176.382 13.5293 177.129 13.1435 178.083 13.1435C179.644 13.1435 180.598 14.3269 180.598 16.2071V20.4846ZM189.487 17.2731H184.569C184.6 18.6349 185.524 19.4034 186.892 19.4034C187.62 19.4034 188.289 19.2845 188.88 19.0634L189.135 20.1735C188.437 20.4694 187.616 20.6173 186.661 20.6173C184.354 20.6173 182.989 19.196 182.989 16.9925C182.989 14.7874 184.387 13.1298 186.476 13.1298C188.361 13.1298 189.543 14.4916 189.543 16.5487C189.554 16.7915 189.535 17.0346 189.487 17.2731ZM187.984 16.1339C187.984 15.0238 187.41 14.2399 186.362 14.2399C185.421 14.2399 184.676 15.039 184.57 16.1339H187.984Z" fill="white"/>
<defs>
<linearGradient id="paint0_linear_1_217" x1="154.753" y1="61.1435" x2="154.753" y2="-158.786" gradientUnits="userSpaceOnUse">
<stop stop-color="#1A1A1A" stop-opacity="0.1"/>
<stop offset="0.123" stop-color="#212121" stop-opacity="0.151"/>
<stop offset="0.308" stop-color="#353535" stop-opacity="0.227"/>
<stop offset="0.532" stop-color="#575757" stop-opacity="0.318"/>
<stop offset="0.783" stop-color="#858585" stop-opacity="0.421"/>
<stop offset="1" stop-color="#B3B3B3" stop-opacity="0.51"/>
</linearGradient>
</defs>
</svg>
