<svg width="210" height="64" viewBox="0 0 210 64" fill="none" xmlns="http://www.w3.org/2000/svg">
<path d="M202.222 63.6907H7.77778C3.42222 63.6907 0 60.2413 0 55.8512V8.81455C0 4.42446 3.42222 0.975098 7.77778 0.975098H202.222C206.578 0.975098 210 4.42446 210 8.81455V55.8512C210 60.2413 206.578 63.6907 202.222 63.6907Z" fill="black"/>
<path d="M202.222 2.22941C205.8 2.22941 208.756 5.2084 208.756 8.81455V55.8512C208.756 59.4574 205.8 62.4364 202.222 62.4364H7.77778C4.2 62.4364 1.24444 59.4574 1.24444 55.8512V8.81455C1.24444 5.2084 4.2 2.22941 7.77778 2.22941H202.222ZM202.222 0.975098H7.77778C3.42222 0.975098 0 4.58124 0 8.81455V55.8512C0 60.2413 3.42222 63.6907 7.77778 63.6907H202.222C206.578 63.6907 210 60.2413 210 55.8512V8.81455C210 4.58124 206.578 0.975098 202.222 0.975098Z" fill="#A6A6A6"/>
<path d="M73.7334 16.9675C73.7334 18.2218 73.4222 19.3193 72.6445 20.1033C71.7111 21.044 70.6222 21.5144 69.2222 21.5144C67.8222 21.5144 66.7334 21.044 65.8 20.1033C64.8667 19.1625 64.4 18.065 64.4 16.6539C64.4 15.2428 64.8667 14.1453 65.8 13.2046C66.7334 12.2638 67.8222 11.7935 69.2222 11.7935C69.8445 11.7935 70.4667 11.9502 71.0889 12.2638C71.7111 12.5774 72.1778 12.891 72.4889 13.3613L71.7111 14.1453C71.0889 13.3613 70.3111 13.0478 69.2222 13.0478C68.2889 13.0478 67.3556 13.3613 66.7334 14.1453C65.9556 14.7724 65.6445 15.7132 65.6445 16.8107C65.6445 17.9082 65.9556 18.849 66.7334 19.4761C67.5111 20.1033 68.2889 20.5736 69.2222 20.5736C70.3111 20.5736 71.0889 20.2601 71.8667 19.4761C72.3334 19.0058 72.6445 18.3786 72.6445 17.5947H69.2222V16.3403H73.7334V16.9675ZM80.8889 13.0478H76.6889V16.0268H80.5778V17.1243H76.6889V20.1033H80.8889V21.3576H75.4445V11.9502H80.8889V13.0478ZM86.0222 21.3576H84.7778V13.0478H82.1334V11.9502H88.6667V13.0478H86.0222V21.3576ZM93.1778 21.3576V11.9502H94.4222V21.3576H93.1778ZM99.7111 21.3576H98.4667V13.0478H95.8222V11.9502H102.2V13.0478H99.5556V21.3576H99.7111ZM114.489 20.1033C113.556 21.044 112.467 21.5144 111.067 21.5144C109.667 21.5144 108.578 21.044 107.644 20.1033C106.711 19.1625 106.244 18.065 106.244 16.6539C106.244 15.2428 106.711 14.1453 107.644 13.2046C108.578 12.2638 109.667 11.7935 111.067 11.7935C112.467 11.7935 113.556 12.2638 114.489 13.2046C115.422 14.1453 115.889 15.2428 115.889 16.6539C115.889 18.065 115.422 19.1625 114.489 20.1033ZM108.578 19.3193C109.2 19.9465 110.133 20.4169 111.067 20.4169C112 20.4169 112.933 20.1033 113.556 19.3193C114.178 18.6922 114.644 17.7514 114.644 16.6539C114.644 15.5564 114.333 14.6157 113.556 13.9885C112.933 13.3613 112 12.891 111.067 12.891C110.133 12.891 109.2 13.2046 108.578 13.9885C107.956 14.6157 107.489 15.5564 107.489 16.6539C107.489 17.7514 107.8 18.6922 108.578 19.3193ZM117.6 21.3576V11.9502H119L123.511 19.3193V11.9502H124.756V21.3576H123.511L118.689 13.6749V21.3576H117.6Z" fill="white" stroke="white" stroke-width="1.18519" stroke-miterlimit="10"/>
<path d="M105.933 35.1552C102.2 35.1552 99.2445 37.9774 99.2445 41.8971C99.2445 45.6601 102.2 48.6391 105.933 48.6391C109.667 48.6391 112.622 45.8169 112.622 41.8971C112.622 37.8206 109.667 35.1552 105.933 35.1552ZM105.933 45.8169C103.911 45.8169 102.2 44.0922 102.2 41.7404C102.2 39.3885 103.911 37.6638 105.933 37.6638C107.956 37.6638 109.667 39.2317 109.667 41.7404C109.667 44.0922 107.956 45.8169 105.933 45.8169ZM91.4667 35.1552C87.7333 35.1552 84.7778 37.9774 84.7778 41.8971C84.7778 45.6601 87.7333 48.6391 91.4667 48.6391C95.2 48.6391 98.1556 45.8169 98.1556 41.8971C98.1556 37.8206 95.2 35.1552 91.4667 35.1552ZM91.4667 45.8169C89.4445 45.8169 87.7334 44.0922 87.7334 41.7404C87.7334 39.3885 89.4445 37.6638 91.4667 37.6638C93.4889 37.6638 95.2 39.2317 95.2 41.7404C95.2 44.0922 93.4889 45.8169 91.4667 45.8169ZM74.2 37.1935V40.0157H80.8889C80.7334 41.5836 80.1111 42.8379 79.3334 43.6218C78.4 44.5626 76.8445 45.6601 74.2 45.6601C70 45.6601 66.8889 42.3675 66.8889 38.1342C66.8889 33.9009 70.1556 30.6083 74.2 30.6083C76.3778 30.6083 78.0889 31.5491 79.3334 32.6466L81.3556 30.6083C79.6445 29.0404 77.4667 27.7861 74.3556 27.7861C68.7556 27.7861 63.9333 32.4898 63.9333 38.1342C63.9333 43.7786 68.7556 48.4823 74.3556 48.4823C77.4667 48.4823 79.6445 47.5415 81.5111 45.5033C83.3778 43.6218 84 40.9564 84 38.9182C84 38.291 84 37.6638 83.8445 37.1935H74.2ZM144.822 39.3885C144.2 37.8206 142.644 35.1552 139.222 35.1552C135.8 35.1552 133 37.8206 133 41.8971C133 45.6601 135.8 48.6391 139.533 48.6391C142.489 48.6391 144.356 46.7576 144.978 45.6601L142.8 44.0922C142.022 45.1897 141.089 45.9737 139.533 45.9737C137.978 45.9737 137.044 45.3465 136.267 43.9354L145.133 40.1725L144.822 39.3885ZM135.8 41.5836C135.8 39.0749 137.822 37.6638 139.222 37.6638C140.311 37.6638 141.4 38.291 141.711 39.0749L135.8 41.5836ZM128.489 48.0119H131.444V28.4133H128.489V48.0119ZM123.822 36.5663C123.044 35.7824 121.8 34.9984 120.244 34.9984C116.978 34.9984 113.867 37.9774 113.867 41.7404C113.867 45.5033 116.822 48.3255 120.244 48.3255C121.8 48.3255 123.044 47.5415 123.667 46.7576H123.822V47.6983C123.822 50.207 122.422 51.6181 120.244 51.6181C118.533 51.6181 117.289 50.3637 116.978 49.2662L114.489 50.3637C115.267 52.0884 117.133 54.2835 120.4 54.2835C123.822 54.2835 126.622 52.2452 126.622 47.3848V35.4688H123.822V36.5663ZM120.4 45.8169C118.378 45.8169 116.667 44.0922 116.667 41.7404C116.667 39.3885 118.378 37.6638 120.4 37.6638C122.422 37.6638 123.978 39.3885 123.978 41.7404C123.978 44.0922 122.422 45.8169 120.4 45.8169ZM158.356 28.4133H151.356V48.0119H154.311V40.6428H158.356C161.622 40.6428 164.733 38.291 164.733 34.5281C164.733 30.7651 161.622 28.4133 158.356 28.4133ZM158.511 37.8206H154.311V31.0787H158.511C160.689 31.0787 161.933 32.9602 161.933 34.3713C161.778 36.0959 160.533 37.8206 158.511 37.8206ZM176.4 34.9984C174.222 34.9984 172.044 35.9392 171.267 37.9774L173.911 39.0749C174.533 37.9774 175.467 37.6638 176.556 37.6638C178.111 37.6638 179.511 38.6046 179.667 40.1725V40.3293C179.2 40.0157 177.956 39.5453 176.711 39.5453C173.911 39.5453 171.111 41.1132 171.111 43.9354C171.111 46.6008 173.444 48.3255 175.933 48.3255C177.956 48.3255 178.889 47.3848 179.667 46.444H179.822V48.0119H182.622V40.486C182.311 37.0367 179.667 34.9984 176.4 34.9984ZM176.089 45.8169C175.156 45.8169 173.756 45.3465 173.756 44.0922C173.756 42.5243 175.467 42.0539 176.867 42.0539C178.111 42.0539 178.733 42.3675 179.511 42.6811C179.2 44.5626 177.644 45.8169 176.089 45.8169ZM192.422 35.4688L189.156 43.9354H189L185.578 35.4688H182.467L187.6 47.3848L184.644 53.9699H187.6L195.533 35.4688H192.422ZM166.289 48.0119H169.244V28.4133H166.289V48.0119Z" fill="white"/>
<path d="M16.1778 12.7341C15.7111 13.2045 15.5555 13.9884 15.5555 14.9292V49.5796C15.5555 50.5203 15.8667 51.3042 16.3333 51.7746L16.4889 51.9314L35.7778 32.4895V32.176L16.1778 12.7341Z" fill="url(#paint0_linear_1_227)"/>
<path d="M42 39.0749L35.6222 32.6465V32.1762L42 25.7478L42.1555 25.9046L49.7778 30.2947C51.9555 31.549 51.9555 33.5873 49.7778 34.8416L42 39.0749Z" fill="url(#paint1_linear_1_227)"/>
<path d="M42.1555 38.9181L35.6222 32.333L16.1778 51.9316C16.9555 52.7156 18.0444 52.7156 19.4444 52.0884L42.1555 38.9181Z" fill="url(#paint2_linear_1_227)"/>
<path d="M42.1555 25.7473L19.4444 12.7338C18.0444 11.9498 16.9555 12.1066 16.1778 12.8906L35.6222 32.3324L42.1555 25.7473Z" fill="url(#paint3_linear_1_227)"/>
<path opacity="0.2" d="M42 38.7614L19.4444 51.618C18.2 52.402 17.1111 52.2452 16.3333 51.618L16.1778 51.7748L16.3333 51.9316C17.1111 52.5588 18.2 52.7156 19.4444 51.9316L42 38.7614Z" fill="black"/>
<path opacity="0.12" d="M16.1778 51.6181C15.7111 51.1477 15.5555 50.3637 15.5555 49.423V49.5798C15.5555 50.5205 15.8667 51.3045 16.3333 51.7748V51.6181H16.1778ZM49.7778 34.3713L42 38.7614L42.1555 38.9181L49.7778 34.5281C50.8667 33.9009 51.3333 33.117 51.3333 32.333C51.3333 33.117 50.7111 33.7441 49.7778 34.3713Z" fill="black"/>
<path opacity="0.25" d="M19.4444 12.8911L49.7778 30.2947C50.7111 30.9218 51.3333 31.549 51.3333 32.3329C51.3333 31.549 50.8667 30.7651 49.7778 30.1379L19.4444 12.7343C17.2667 11.48 15.5555 12.4207 15.5555 14.9294V15.0862C15.5555 12.7343 17.2667 11.6368 19.4444 12.8911Z" fill="white"/>
<defs>
<linearGradient id="paint0_linear_1_227" x1="33.9111" y1="14.6313" x2="7.59803" y2="40.7358" gradientUnits="userSpaceOnUse">
<stop stop-color="#00A0FF"/>
<stop offset="0.007" stop-color="#00A1FF"/>
<stop offset="0.26" stop-color="#00BEFF"/>
<stop offset="0.512" stop-color="#00D2FF"/>
<stop offset="0.76" stop-color="#00DFFF"/>
<stop offset="1" stop-color="#00E3FF"/>
</linearGradient>
<linearGradient id="paint1_linear_1_227" x1="52.6307" y1="32.3345" x2="14.9909" y2="32.3345" gradientUnits="userSpaceOnUse">
<stop stop-color="#FFE000"/>
<stop offset="0.409" stop-color="#FFBD00"/>
<stop offset="0.775" stop-color="#FFA500"/>
<stop offset="1" stop-color="#FF9C00"/>
</linearGradient>
<linearGradient id="paint2_linear_1_227" x1="38.6198" y1="35.9329" x2="2.93884" y2="71.3331" gradientUnits="userSpaceOnUse">
<stop stop-color="#FF3A44"/>
<stop offset="1" stop-color="#C31162"/>
</linearGradient>
<linearGradient id="paint3_linear_1_227" x1="11.3509" y1="1.25056" x2="27.2848" y2="17.0592" gradientUnits="userSpaceOnUse">
<stop stop-color="#32A071"/>
<stop offset="0.069" stop-color="#2DA771"/>
<stop offset="0.476" stop-color="#15CF74"/>
<stop offset="0.801" stop-color="#06E775"/>
<stop offset="1" stop-color="#00F076"/>
</linearGradient>
</defs>
</svg>
