<svg width="22" height="17" viewBox="0 0 22 17" fill="none" xmlns="http://www.w3.org/2000/svg">
<path d="M9.95 2.25L6.3 9.05L4 9.7C4.26667 9.2 4.56667 8.8 4.9 8.5C5.23333 8.16666 5.61667 8 6.05 8C7.01667 8 7.88333 8.4 8.65 9.2C9.45 9.96666 9.85 10.9667 9.85 12.2C9.85 13.5 9.4 14.6167 8.5 15.55C7.63333 16.4833 6.55 16.95 5.25 16.95C4.01667 16.95 2.93333 16.5 2 15.6C1.1 14.6667 0.65 13.5333 0.65 12.2C0.65 11.6667 0.75 11.05 0.95 10.35C1.18333 9.65 1.6 8.73333 2.2 7.6L6.2 0.199997L9.95 2.25ZM21.9871 2.25L18.3371 9.05L16.0371 9.7C16.3038 9.2 16.6038 8.8 16.9371 8.5C17.2704 8.16666 17.6538 8 18.0871 8C19.0538 8 19.9204 8.4 20.6871 9.2C21.4871 9.96666 21.8871 10.9667 21.8871 12.2C21.8871 13.5 21.4371 14.6167 20.5371 15.55C19.6704 16.4833 18.5871 16.95 17.2871 16.95C16.0538 16.95 14.9704 16.5 14.0371 15.6C13.1371 14.6667 12.6871 13.5333 12.6871 12.2C12.6871 11.6667 12.7871 11.05 12.9871 10.35C13.2204 9.65 13.6371 8.73333 14.2371 7.6L18.2371 0.199997L21.9871 2.25Z" fill="#116ACC" fill-opacity="0.6"/>
</svg>
